<svg xmlns="http://www.w3.org/2000/svg" viewBox="0 0 800 520" width="800" height="520" role="img" aria-label="what speclaw writes into your project">
  <defs>
    <style>text{font-family:'Chivo Mono','SFMono-Regular',Menlo,monospace;font-size:16px;}.cy{fill:#00e3fd;}.cr{fill:#f4f4f3;}.mu{fill:#999ea3;}.tr{fill:none;stroke:#4c5056;stroke-width:1.5;}</style>
  </defs>
  <rect x="1" y="1" width="798" height="518" rx="16" fill="#0d0d0e"/>
  <path d="M1 50V17A16 16 0 0 1 17 1H783A16 16 0 0 1 799 17V50Z" fill="#1f2022"/>
  <line x1="1" y1="50" x2="799" y2="50" stroke="#303236"/>
  <rect x="1" y="1" width="798" height="518" rx="16" fill="none" stroke="#4c5056" stroke-width="1.5"/>
  <circle cx="32" cy="26" r="7" fill="#ff5c47"/><circle cx="56" cy="26" r="7" fill="#f5b73d"/><circle cx="80" cy="26" r="7" fill="#3ecf7a"/>
  <text x="400" y="31" text-anchor="middle" fill="#babdc1" font-size="14">your-repo/ — after speclaw init</text>

  <path class="tr" d="M38.8 98V364.5"/>
  <path class="tr" d="M38.8 112.5H62.8"/>
  <path class="tr" d="M38.8 140.5H62.8"/>
  <path class="tr" d="M38.8 168.5H62.8"/>
  <path class="tr" d="M38.8 196.5H62.8"/>
  <path class="tr" d="M38.8 224.5H62.8"/>
  <path class="tr" d="M38.8 252.5H62.8"/>
  <path class="tr" d="M38.8 280.5H62.8"/>
  <path class="tr" d="M38.8 308.5H62.8"/>
  <path class="tr" d="M38.8 336.5H62.8"/>
  <path class="tr" d="M38.8 364.5H62.8"/>
  <text x="34" y="90"><tspan class="cr">your-repo/</tspan></text>
  <text x="72.4" y="118"><tspan class="cr">LAWS.md · CLAUDE.md · AGENTS.md</tspan><tspan class="mu">  constitution</tspan></text>
  <text x="72.4" y="146"><tspan class="cy">speclaw.lock          </tspan><tspan class="mu">rule digests (committed)</tspan></text>
  <text x="72.4" y="174"><tspan class="cr">docs/standards · compass · cortex</tspan><tspan class="mu">  the laws</tspan></text>
  <text x="72.4" y="202"><tspan class="cr">lawbook/              </tspan><tspan class="mu">specs · changes · harness · anchors</tspan></text>
  <text x="72.4" y="230"><tspan class="cr">.github/CODEOWNERS    </tspan><tspan class="mu">+ managed speclaw:owners block</tspan></text>
  <text x="72.4" y="258"><tspan class="cr">.github/workflows/    </tspan><tspan class="mu">speclaw.yml (verify CI)</tspan></text>
  <text x="72.4" y="286"><tspan class="cr">ai-specs/             </tspan><tspan class="mu">skills · cortex · role agents</tspan></text>
  <text x="72.4" y="314"><tspan class="cr">.claude/ .cursor/ …   </tspan><tspan class="mu">symlinks + law hooks</tspan></text>
  <text x="72.4" y="342"><tspan class="cr">.mcp.json             </tspan><tspan class="mu">9 tools incl. cortex</tspan></text>
  <text x="72.4" y="370"><tspan class="cy">.speclaw/             </tspan><tspan class="mu">index · laws manifest (gitignored)</tspan></text>

  <text x="34" y="430" class="mu" font-size="14">Committed: constitution + lawbook + speclaw.lock · Local: ai-specs + .speclaw</text>
  <text x="34" y="458" class="mu" font-size="14">Cortex roles live in ai-specs/agents/ · harness.json per change</text>
  <text x="34" y="486" class="mu" font-size="14">After clone: speclaw init / update regenerates regenerable trees</text>
</svg>
